<svg width="24" height="24" viewBox="0 0 24 24" fill="none" xmlns="http://www.w3.org/2000/svg">
<g clip-path="url(#clip0_507_7)">
<path d="M19.8991 8.13848C19.9112 8.31357 19.9112 8.48866 19.9112 8.66536C19.9112 14.0496 15.8144 20.2593 8.32331 20.2593V20.2561C6.11041 20.2593 3.94347 19.6251 2.08057 18.4293C2.40234 18.468 2.72573 18.4874 3.04992 18.4882C4.88379 18.4898 6.66524 17.8742 8.10799 16.7405C6.36524 16.7075 4.83702 15.5706 4.30315 13.9108C4.91334 14.0286 5.5424 14.0045 6.14186 13.8406C4.24186 13.4566 2.87492 11.7863 2.87492 9.84662V9.79498C3.44133 10.1107 4.07525 10.2855 4.72331 10.3049C2.93379 9.10834 2.38218 6.72645 3.46282 4.86419C4.48527 6.12302 5.76096 7.15258 7.20701 7.886C8.65307 8.61941 10.2372 9.04027 11.8564 9.12125C11.695 8.42591 11.7188 7.70037 11.9256 7.01716C12.1324 6.33395 12.5148 5.71703 13.0346 5.22809C14.6749 3.68535 17.2548 3.76442 18.7967 5.40479C19.7088 5.22486 20.583 4.89001 21.383 4.41557C21.0789 5.35902 20.4427 6.15986 19.5927 6.66916C20.3999 6.57395 21.1886 6.35771 21.9314 6.0277C21.3848 6.84663 20.6966 7.56142 19.8991 8.13848Z" fill="#1D9BF0"/>
</g>
<defs>
<clipPath id="clip0_507_7">
<rect width="20" height="16.4602" fill="white" transform="translate(2 4)"/>
</clipPath>
</defs>
</svg>
